HIERARCHY
ROOT hip
{
	OFFSET 0.000000 0.000000 0.000000 
	CHANNELS 6 Xposition Yposition Zposition Xrotation Zrotation Yrotation
	JOINT abdomen
	{
		OFFSET 0.000000 3.402643 0.000000 
		CHANNELS 3 Xrotation Zrotation Yrotation
		JOINT chest
		{
			OFFSET 0.000000 8.438565 -0.680529 
			CHANNELS 3 Xrotation Zrotation Yrotation
			JOINT neck
			{
				OFFSET 0.000000 10.207942 -0.272212 
				CHANNELS 3 Xrotation Zrotation Yrotation
				JOINT head
				{
					OFFSET 0.000000 3.130431 0.000000 
					CHANNELS 3 Xrotation Zrotation Yrotation
					End Site
					{
						OFFSET 0.000000 3.130435 0.000000 
					}
				}
			}
			JOINT lCollar
			{
				OFFSET 3.470700 6.669187 -0.816635 
				CHANNELS 3 Yrotation Zrotation Xrotation
				JOINT lShldr
				{
					OFFSET 3.198488 0.000000 0.000000 
					CHANNELS 3 Zrotation Yrotation Xrotation
					JOINT lForeArm
					{
						OFFSET 10.139888 0.000000 0.000000 
						CHANNELS 3 Yrotation Zrotation Xrotation
						JOINT lHand
						{
							OFFSET 8.370511 0.000000 0.000000 
							CHANNELS 3 Zrotation Yrotation Xrotation
							End Site
							{
								OFFSET 4.083176 0.000000 0.000000 
							}
						}
					}
				}
			}
			JOINT rCollar
			{
				OFFSET -3.470700 6.669187 -0.816635 
				CHANNELS 3 Yrotation Zrotation Xrotation
				JOINT rShldr
				{
					OFFSET -3.198488 0.000000 0.000000 
					CHANNELS 3 Zrotation Yrotation Xrotation
					JOINT rForeArm
					{
						OFFSET -10.139888 0.000000 0.000000 
						CHANNELS 3 Yrotation Zrotation Xrotation
						JOINT rHand
						{
							OFFSET -8.370511 0.000000 0.000000 
							CHANNELS 3 Zrotation Yrotation Xrotation
							End Site
							{
								OFFSET -4.083176 0.000000 0.000000 
							}
						}
					}
				}
			}
		}
	}
	JOINT lThigh
	{
		OFFSET 5.308129 -1.633274 1.361059 
		CHANNELS 3 Xrotation Zrotation Yrotation
		JOINT lShin
		{
			OFFSET -2.041588 -20.007561 0.000000 
			CHANNELS 3 Xrotation Zrotation Yrotation
			JOINT lFoot
			{
				OFFSET 0.000000 -19.190928 -1.224953 
				CHANNELS 3 Xrotation Yrotation Zrotation
				End Site
				{
					OFFSET 0.000000 -2.449906 4.627600 
				}
			}
		}
	}
	JOINT rThigh
	{
		OFFSET -5.308129 -1.633274 1.361059 
		CHANNELS 3 Xrotation Zrotation Yrotation
		JOINT rShin
		{
			OFFSET 2.041588 -20.007561 0.000000 
			CHANNELS 3 Xrotation Zrotation Yrotation
			JOINT rFoot
			{
				OFFSET 0.000000 -19.190928 -1.224953 
				CHANNELS 3 Xrotation Yrotation Zrotation
				End Site
				{
					OFFSET 0.000000 -2.449906 4.627600 
				}
			}
		}
	}
}
MOTION
Frames: 6
Frame Time: 0.011111
40.037971 50.967476 8.260562 3.316696 -7.853931 -3.760434 6.620859 5.054034 11.137125 -2.392153 0.383959 3.202699 -12.361906 -7.998714 -2.700724 25.103758 12.809755 -4.009016 12.413046 -14.960623 4.251975 -62.905518 -23.967527 14.928679 -52.764366 8.655462 8.319324 6.992188 16.005859 -59.343014 -6.427974 8.898234 2.089853 42.717396 15.362923 68.300255 80.086807 -8.250772 20.865406 -7.001954 -15.996095 66.298828 -39.298573 12.908133 -5.219392 29.260418 -5.249180 -2.161366 -21.230505 -3.489724 -1.305132 20.625841 8.873841 4.665658 3.524423 5.055815 -0.013951 -16.470720 2.594632 1.103002 
40.065811 50.929943 8.789145 3.349055 -7.196881 -4.254688 6.711805 4.042200 11.093537 -2.430557 0.659160 3.220476 -12.582386 -7.836878 -2.510476 25.405426 12.580044 -3.656264 12.413046 -14.960623 4.251975 -63.016712 -24.009293 14.170782 -52.427155 8.579119 8.179596 6.992188 16.005859 -59.343014 -6.427974 8.898234 2.089853 42.599613 15.750465 68.802826 80.016617 -8.273851 20.829248 -7.001954 -15.996095 66.406250 -38.995377 12.478298 -4.456287 29.129404 -5.259763 -2.148430 -21.315741 -3.702294 -1.373492 20.998129 8.044573 4.923100 3.523457 5.056327 -0.023658 -16.498007 2.410470 1.050594 
40.102718 50.867390 9.338368 3.523971 -7.214308 -4.738389 6.609093 3.985359 11.377664 -2.586805 0.616985 3.295419 -12.493253 -7.653299 -2.478027 25.365959 12.424376 -3.574681 12.413046 -14.960623 4.251975 -62.869759 -23.725407 13.952896 -52.384869 8.568672 8.160584 6.992188 16.005859 -59.421135 -6.427974 8.898234 2.089853 42.663708 15.649335 69.010513 79.968590 -8.292851 20.814186 -7.001954 -15.996095 66.376953 -38.902454 12.645477 -4.084180 29.170021 -5.255095 -2.159431 -21.191368 -3.783094 -1.425121 21.459023 7.849988 5.441684 3.523435 5.056501 -0.013887 -16.427298 2.278560 1.015427 
40.169025 50.795761 9.898852 3.617804 -7.626178 -4.307300 6.578558 4.614741 11.170213 -2.577654 0.296166 3.218256 -12.330976 -7.671191 -2.576876 24.819004 12.590654 -3.759221 12.413046 -14.960623 4.251975 -62.678638 -23.914387 13.582094 -51.860626 8.456103 7.950288 6.992188 16.005859 -59.850822 -6.427974 8.898234 2.089853 42.944160 15.497772 68.700249 79.979042 -8.290081 20.815100 -7.001954 -15.996095 66.044922 -38.944122 12.685232 -4.170685 29.446861 -5.264004 -2.182366 -20.234682 -3.839225 -1.450674 22.045546 8.240698 5.275304 3.523386 5.056377 -0.023653 -16.425306 2.291494 1.022737 
40.182163 50.780125 10.413983 3.950216 -7.745572 -4.958276 6.453411 4.590789 11.566887 -2.480285 0.316538 3.336755 -12.423647 -7.817517 -2.526204 24.576180 12.843060 -3.687610 12.413046 -14.960623 4.251975 -62.697510 -24.446651 12.852606 -51.031799 8.259808 7.609381 6.992188 16.005859 -60.495354 -6.427974 8.898234 2.089853 43.064476 15.687061 68.476753 79.986687 -8.283905 20.816504 -7.001954 -15.996095 65.839844 -38.939671 13.103836 -3.498915 29.903006 -5.268655 -2.202482 -19.246912 -3.506223 -1.359473 22.289768 8.084596 5.977810 3.523252 5.056471 -0.023645 -16.100460 2.277721 1.028830 
40.220634 50.697556 10.933494 3.894181 -7.914498 -4.697168 6.768998 4.735056 11.244572 -2.616609 0.327382 3.228608 -12.667748 -7.940812 -2.359819 24.919571 12.972282 -3.344094 12.413046 -14.960623 4.251975 -62.792503 -24.510880 12.131952 -50.854530 8.220999 7.540699 6.992188 16.005859 -61.149651 -6.427974 8.898234 2.089853 43.054558 15.863625 68.516983 79.886284 -8.316521 20.757847 -7.001954 -15.996095 65.673828 -38.816353 13.026765 -3.476128 30.630219 -5.254615 -2.267236 -18.464287 -3.316648 -1.294101 22.925695 8.211863 5.872927 3.523339 5.056568 -0.013881 -15.636582 2.268104 1.033982 
